# 3ds Max Wavefront OBJ Exporter v0.97b - (c)2007 guruware
# 创建的文件:14.11.2016 11:25:55

mtllib cylinder.mtl

#
# object Cylinder001
#

v  0.0000 0.0000 0.0000
v  0.3700 0.1347 0.0000
v  0.3937 0.0000 0.0000
v  0.3016 0.2531 0.0000
v  0.1969 0.3410 0.0000
v  0.0684 0.3877 0.0000
v  -0.0684 0.3877 0.0000
v  -0.1969 0.3410 0.0000
v  -0.3016 0.2531 0.0000
v  -0.3700 0.1347 0.0000
v  -0.3937 0.0000 0.0000
v  -0.3700 -0.1347 0.0000
v  -0.3016 -0.2531 0.0000
v  -0.1969 -0.3410 0.0000
v  -0.0684 -0.3877 0.0000
v  0.0684 -0.3877 0.0000
v  0.1969 -0.3410 0.0000
v  0.3016 -0.2531 0.0000
v  0.3700 -0.1347 0.0000
v  0.3700 0.1347 0.3937
v  0.3937 0.0000 0.3937
v  0.3016 0.2531 0.3937
v  0.1969 0.3410 0.3937
v  0.0684 0.3877 0.3937
v  -0.0684 0.3877 0.3937
v  -0.1969 0.3410 0.3937
v  -0.3016 0.2531 0.3937
v  -0.3700 0.1347 0.3937
v  -0.3937 0.0000 0.3937
v  -0.3700 -0.1347 0.3937
v  -0.3016 -0.2531 0.3937
v  -0.1969 -0.3410 0.3937
v  -0.0684 -0.3877 0.3937
v  0.0684 -0.3877 0.3937
v  0.1969 -0.3410 0.3937
v  0.3016 -0.2531 0.3937
v  0.3700 -0.1347 0.3937
v  0.3700 0.1347 0.7874
v  0.3937 0.0000 0.7874
v  0.3016 0.2531 0.7874
v  0.1969 0.3410 0.7874
v  0.0684 0.3877 0.7874
v  -0.0684 0.3877 0.7874
v  -0.1969 0.3410 0.7874
v  -0.3016 0.2531 0.7874
v  -0.3700 0.1347 0.7874
v  -0.3937 0.0000 0.7874
v  -0.3700 -0.1347 0.7874
v  -0.3016 -0.2531 0.7874
v  -0.1969 -0.3410 0.7874
v  -0.0684 -0.3877 0.7874
v  0.0684 -0.3877 0.7874
v  0.1969 -0.3410 0.7874
v  0.3016 -0.2531 0.7874
v  0.3700 -0.1347 0.7874
v  0.3700 0.1347 1.1811
v  0.3937 0.0000 1.1811
v  0.3016 0.2531 1.1811
v  0.1969 0.3410 1.1811
v  0.0684 0.3877 1.1811
v  -0.0684 0.3877 1.1811
v  -0.1969 0.3410 1.1811
v  -0.3016 0.2531 1.1811
v  -0.3700 0.1347 1.1811
v  -0.3937 0.0000 1.1811
v  -0.3700 -0.1347 1.1811
v  -0.3016 -0.2531 1.1811
v  -0.1969 -0.3410 1.1811
v  -0.0684 -0.3877 1.1811
v  0.0684 -0.3877 1.1811
v  0.1969 -0.3410 1.1811
v  0.3016 -0.2531 1.1811
v  0.3700 -0.1347 1.1811
v  0.0000 0.0000 1.1811
# 74 vertices

vn 0.0000 0.0000 -1.0000
vn 1.0000 -0.0000 0.0000
vn 0.9397 0.3420 0.0000
vn 0.7660 0.6428 0.0000
vn 0.5000 0.8660 0.0000
vn 0.1736 0.9848 0.0000
vn -0.1736 0.9848 0.0000
vn -0.5000 0.8660 0.0000
vn -0.7660 0.6428 0.0000
vn -0.9397 0.3420 0.0000
vn -1.0000 0.0000 0.0000
vn -0.9397 -0.3420 0.0000
vn -0.7660 -0.6428 0.0000
vn -0.5000 -0.8660 0.0000
vn -0.1736 -0.9848 0.0000
vn 0.1736 -0.9848 0.0000
vn 0.5000 -0.8660 0.0000
vn 0.7660 -0.6428 0.0000
vn 0.9397 -0.3420 0.0000
vn 0.0000 0.0000 1.0000
# 20 vertex normals

vt 0.5000 0.0000 0.0000
vt 0.8056 0.0000 1.0000
vt 0.7500 0.0000 1.0000
vt 0.8611 0.0000 1.0000
vt 0.9167 0.0000 1.0000
vt 0.9722 0.0000 1.0000
vt 0.0278 0.0000 1.0000
vt -0.0278 0.0000 1.0000
vt 0.0833 0.0000 1.0000
vt 0.1389 0.0000 1.0000
vt 0.1944 0.0000 1.0000
vt 0.2500 0.0000 1.0000
vt 0.3056 0.0000 1.0000
vt 0.3611 0.0000 1.0000
vt 0.4167 0.0000 1.0000
vt 0.4722 0.0000 1.0000
vt 0.5278 0.0000 1.0000
vt 0.5833 0.0000 1.0000
vt 0.6389 0.0000 1.0000
vt 0.6944 0.0000 1.0000
vt 0.8056 0.3333 1.0000
vt 0.7500 0.3333 1.0000
vt 0.8611 0.3333 1.0000
vt 0.9167 0.3333 1.0000
vt 0.9722 0.3333 1.0000
vt 0.0278 0.3333 1.0000
vt -0.0278 0.3333 1.0000
vt 0.0833 0.3333 1.0000
vt 0.1389 0.3333 1.0000
vt 0.1944 0.3333 1.0000
vt 0.2500 0.3333 1.0000
vt 0.3056 0.3333 1.0000
vt 0.3611 0.3333 1.0000
vt 0.4167 0.3333 1.0000
vt 0.4722 0.3333 1.0000
vt 0.5278 0.3333 1.0000
vt 0.5833 0.3333 1.0000
vt 0.6389 0.3333 1.0000
vt 0.6944 0.3333 1.0000
vt 0.8056 0.6667 1.0000
vt 0.7500 0.6667 1.0000
vt 0.8611 0.6667 1.0000
vt 0.9167 0.6667 1.0000
vt 0.9722 0.6667 1.0000
vt 0.0278 0.6667 1.0000
vt -0.0278 0.6667 1.0000
vt 0.0833 0.6667 1.0000
vt 0.1389 0.6667 1.0000
vt 0.1944 0.6667 1.0000
vt 0.2500 0.6667 1.0000
vt 0.3056 0.6667 1.0000
vt 0.3611 0.6667 1.0000
vt 0.4167 0.6667 1.0000
vt 0.4722 0.6667 1.0000
vt 0.5278 0.6667 1.0000
vt 0.5833 0.6667 1.0000
vt 0.6389 0.6667 1.0000
vt 0.6944 0.6667 1.0000
vt 0.8056 1.0000 1.0000
vt 0.7500 1.0000 1.0000
vt 0.8611 1.0000 1.0000
vt 0.9167 1.0000 1.0000
vt 0.9722 1.0000 1.0000
vt 0.0278 1.0000 1.0000
vt -0.0278 1.0000 1.0000
vt 0.0833 1.0000 1.0000
vt 0.1389 1.0000 1.0000
vt 0.1944 1.0000 1.0000
vt 0.2500 1.0000 1.0000
vt 0.3056 1.0000 1.0000
vt 0.3611 1.0000 1.0000
vt 0.4167 1.0000 1.0000
vt 0.4722 1.0000 1.0000
vt 0.5278 1.0000 1.0000
vt 0.5833 1.0000 1.0000
vt 0.6389 1.0000 1.0000
vt 0.6944 1.0000 1.0000
vt 0.5000 1.0000 0.0000
# 78 texture coords

g Cylinder001
usemtl wire_177148027
s 1
f 1/1/1 2/2/1 3/3/1 
f 1/1/1 4/4/1 2/2/1 
f 1/1/1 5/5/1 4/4/1 
f 1/1/1 6/6/1 5/5/1 
f 1/1/1 7/7/1 6/8/1 
f 1/1/1 8/9/1 7/7/1 
f 1/1/1 9/10/1 8/9/1 
f 1/1/1 10/11/1 9/10/1 
f 1/1/1 11/12/1 10/11/1 
f 1/1/1 12/13/1 11/12/1 
f 1/1/1 13/14/1 12/13/1 
f 1/1/1 14/15/1 13/14/1 
f 1/1/1 15/16/1 14/15/1 
f 1/1/1 16/17/1 15/16/1 
f 1/1/1 17/18/1 16/17/1 
f 1/1/1 18/19/1 17/18/1 
f 1/1/1 19/20/1 18/19/1 
f 1/1/1 3/3/1 19/20/1 
s 8
f 3/3/2 20/21/3 21/22/2 
f 3/3/2 2/2/3 20/21/3 
f 2/2/3 22/23/4 20/21/3 
f 2/2/3 4/4/4 22/23/4 
f 4/4/4 23/24/5 22/23/4 
f 4/4/4 5/5/5 23/24/5 
f 5/5/5 24/25/6 23/24/5 
f 5/5/5 6/6/6 24/25/6 
f 6/8/6 25/26/7 24/27/6 
f 6/8/6 7/7/7 25/26/7 
f 7/7/7 26/28/8 25/26/7 
f 7/7/7 8/9/8 26/28/8 
f 8/9/8 27/29/9 26/28/8 
f 8/9/8 9/10/9 27/29/9 
f 9/10/9 28/30/10 27/29/9 
f 9/10/9 10/11/10 28/30/10 
f 10/11/10 29/31/11 28/30/10 
f 10/11/10 11/12/11 29/31/11 
f 11/12/11 30/32/12 29/31/11 
f 11/12/11 12/13/12 30/32/12 
f 12/13/12 31/33/13 30/32/12 
f 12/13/12 13/14/13 31/33/13 
f 13/14/13 32/34/14 31/33/13 
f 13/14/13 14/15/14 32/34/14 
f 14/15/14 33/35/15 32/34/14 
f 14/15/14 15/16/15 33/35/15 
f 15/16/15 34/36/16 33/35/15 
f 15/16/15 16/17/16 34/36/16 
f 16/17/16 35/37/17 34/36/16 
f 16/17/16 17/18/17 35/37/17 
f 17/18/17 36/38/18 35/37/17 
f 17/18/17 18/19/18 36/38/18 
f 18/19/18 37/39/19 36/38/18 
f 18/19/18 19/20/19 37/39/19 
f 19/20/19 21/22/2 37/39/19 
f 19/20/19 3/3/2 21/22/2 
f 21/22/2 38/40/3 39/41/2 
f 21/22/2 20/21/3 38/40/3 
f 20/21/3 40/42/4 38/40/3 
f 20/21/3 22/23/4 40/42/4 
f 22/23/4 41/43/5 40/42/4 
f 22/23/4 23/24/5 41/43/5 
f 23/24/5 42/44/6 41/43/5 
f 23/24/5 24/25/6 42/44/6 
f 24/27/6 43/45/7 42/46/6 
f 24/27/6 25/26/7 43/45/7 
f 25/26/7 44/47/8 43/45/7 
f 25/26/7 26/28/8 44/47/8 
f 26/28/8 45/48/9 44/47/8 
f 26/28/8 27/29/9 45/48/9 
f 27/29/9 46/49/10 45/48/9 
f 27/29/9 28/30/10 46/49/10 
f 28/30/10 47/50/11 46/49/10 
f 28/30/10 29/31/11 47/50/11 
f 29/31/11 48/51/12 47/50/11 
f 29/31/11 30/32/12 48/51/12 
f 30/32/12 49/52/13 48/51/12 
f 30/32/12 31/33/13 49/52/13 
f 31/33/13 50/53/14 49/52/13 
f 31/33/13 32/34/14 50/53/14 
f 32/34/14 51/54/15 50/53/14 
f 32/34/14 33/35/15 51/54/15 
f 33/35/15 52/55/16 51/54/15 
f 33/35/15 34/36/16 52/55/16 
f 34/36/16 53/56/17 52/55/16 
f 34/36/16 35/37/17 53/56/17 
f 35/37/17 54/57/18 53/56/17 
f 35/37/17 36/38/18 54/57/18 
f 36/38/18 55/58/19 54/57/18 
f 36/38/18 37/39/19 55/58/19 
f 37/39/19 39/41/2 55/58/19 
f 37/39/19 21/22/2 39/41/2 
f 39/41/2 56/59/3 57/60/2 
f 39/41/2 38/40/3 56/59/3 
f 38/40/3 58/61/4 56/59/3 
f 38/40/3 40/42/4 58/61/4 
f 40/42/4 59/62/5 58/61/4 
f 40/42/4 41/43/5 59/62/5 
f 41/43/5 60/63/6 59/62/5 
f 41/43/5 42/44/6 60/63/6 
f 42/46/6 61/64/7 60/65/6 
f 42/46/6 43/45/7 61/64/7 
f 43/45/7 62/66/8 61/64/7 
f 43/45/7 44/47/8 62/66/8 
f 44/47/8 63/67/9 62/66/8 
f 44/47/8 45/48/9 63/67/9 
f 45/48/9 64/68/10 63/67/9 
f 45/48/9 46/49/10 64/68/10 
f 46/49/10 65/69/11 64/68/10 
f 46/49/10 47/50/11 65/69/11 
f 47/50/11 66/70/12 65/69/11 
f 47/50/11 48/51/12 66/70/12 
f 48/51/12 67/71/13 66/70/12 
f 48/51/12 49/52/13 67/71/13 
f 49/52/13 68/72/14 67/71/13 
f 49/52/13 50/53/14 68/72/14 
f 50/53/14 69/73/15 68/72/14 
f 50/53/14 51/54/15 69/73/15 
f 51/54/15 70/74/16 69/73/15 
f 51/54/15 52/55/16 70/74/16 
f 52/55/16 71/75/17 70/74/16 
f 52/55/16 53/56/17 71/75/17 
f 53/56/17 72/76/18 71/75/17 
f 53/56/17 54/57/18 72/76/18 
f 54/57/18 73/77/19 72/76/18 
f 54/57/18 55/58/19 73/77/19 
f 55/58/19 57/60/2 73/77/19 
f 55/58/19 39/41/2 57/60/2 
s 1
f 74/78/20 57/60/20 56/59/20 
f 74/78/20 56/59/20 58/61/20 
f 74/78/20 58/61/20 59/62/20 
f 74/78/20 59/62/20 60/63/20 
f 74/78/20 60/65/20 61/64/20 
f 74/78/20 61/64/20 62/66/20 
f 74/78/20 62/66/20 63/67/20 
f 74/78/20 63/67/20 64/68/20 
f 74/78/20 64/68/20 65/69/20 
f 74/78/20 65/69/20 66/70/20 
f 74/78/20 66/70/20 67/71/20 
f 74/78/20 67/71/20 68/72/20 
f 74/78/20 68/72/20 69/73/20 
f 74/78/20 69/73/20 70/74/20 
f 74/78/20 70/74/20 71/75/20 
f 74/78/20 71/75/20 72/76/20 
f 74/78/20 72/76/20 73/77/20 
f 74/78/20 73/77/20 57/60/20 
# 144 faces

