# 3ds Max Wavefront OBJ Exporter v0.97b - (c)2007 guruware
# 创建的文件:02.12.2016 02:15:57

mtllib gripper3_2.mtl

#
# object Box002
#

v  0.0000 18.2346 0.0406
v  0.0000 18.2346 -0.0643
v  0.0000 18.2920 -0.0643
v  0.0000 18.2920 0.0406
v  -0.0762 18.2346 0.0406
v  -0.0762 18.2920 0.0406
v  -0.0762 18.2920 -0.0643
v  -0.0762 18.2346 -0.0643
v  -0.0350 18.2985 0.0000
v  0.0330 18.2985 0.0000
v  0.0330 18.5333 0.0000
v  -0.0350 18.5333 0.0000
v  -0.0350 18.2985 -0.0546
v  -0.0350 18.5333 -0.0546
v  0.0330 18.5333 -0.0546
v  0.0330 18.2985 -0.0546
# 16 vertices

vn 1.0000 0.0000 0.0000
vn -1.0000 0.0000 0.0000
vn 0.0000 0.0000 -1.0000
vn 0.0000 -1.0000 0.0000
vn 0.0000 0.0000 1.0000
vn 0.0000 1.0000 0.0000
# 6 vertex normals

vt 0.0000 1.0000 0.0000
vt 0.0000 0.0000 0.0000
vt 1.0000 0.0000 0.0000
vt 1.0000 1.0000 0.0000
# 4 texture coords

g Box002
usemtl wire_028149177
s 2
f 1/1/1 2/2/1 3/3/1 
f 3/3/1 4/4/1 1/1/1 
s 4
f 5/4/2 6/1/2 7/2/2 
f 7/2/2 8/3/2 5/4/2 
s 8
f 8/4/3 7/1/3 3/2/3 
f 3/2/3 2/3/3 8/4/3 
s 16
f 5/4/4 8/1/4 2/2/4 
f 2/2/4 1/3/4 5/4/4 
s 32
f 6/4/5 5/1/5 1/2/5 
f 1/2/5 4/3/5 6/4/5 
s 64
f 7/4/6 6/1/6 4/2/6 
f 4/2/6 3/3/6 7/4/6 
usemtl wire_213154229
s 2
f 9/3/5 10/2/5 11/1/5 
f 11/1/5 12/4/5 9/3/5 
usemtl wire_028149177
s 4
f 13/2/3 14/1/3 15/4/3 
f 15/4/3 16/3/3 13/2/3 
usemtl wire_186132181
s 8
f 9/2/4 13/1/4 16/4/4 
f 16/4/4 10/3/4 9/2/4 
usemtl wire_105150163
s 16
f 10/2/1 16/1/1 15/4/1 
f 15/4/1 11/3/1 10/2/1 
usemtl wire_016202255
s 32
f 11/2/6 15/1/6 14/4/6 
f 14/4/6 12/3/6 11/2/6 
usemtl wire_140088225
s 64
f 12/2/2 14/1/2 13/4/2 
f 13/4/2 9/3/2 12/2/2 
# 24 faces

