####
#
# OBJ File Generated by Meshlab
#
####
# Object new_less_normal.obj
#
# Vertices: 93
# Faces: 140
#
####
mtllib ./new_less_normal.obj.mtl

vn 2.482623 -2.057476 -5.726676
v -0.081900 18.105400 0.106600 0.752941 0.752941 0.752941
vn 2.930484 -1.548752 -5.782987
v -0.083000 18.100599 0.107800 0.752941 0.752941 0.752941
vn 0.939176 -1.835644 -5.015891
v -0.081600 18.106100 0.106400 0.752941 0.752941 0.752941
vn 2.647730 -1.180215 -5.681148
v -0.087700 18.079399 0.110900 0.752941 0.752941 0.752941
vn 2.319362 -0.546814 -5.658101
v -0.082700 18.045799 0.118100 0.752941 0.752941 0.752941
vn 2.392261 -0.569539 -5.869879
v -0.087900 18.045601 0.116000 0.752941 0.752941 0.752941
vn 2.403413 -0.821651 -5.438152
v -0.083300 18.078400 0.113100 0.752941 0.752941 0.752941
vn 2.764246 -1.222904 -5.846871
v -0.083500 18.079700 0.112800 0.752941 0.752941 0.752941
vn 2.475681 -1.785623 -5.589362
v -0.087700 18.112301 0.102100 0.752941 0.752941 0.752941
vn -4.966610 -0.684906 -3.149935
v -0.082600 18.093100 0.108800 0.752941 0.752941 0.752941
vn 2.354841 -1.771256 4.944698
v -0.082000 18.105000 -0.106700 0.752941 0.752941 0.752941
vn 3.354647 -1.512007 5.550290
v -0.083000 18.100599 -0.107800 0.752941 0.752941 0.752941
vn 2.457283 -0.813181 5.757138
v -0.089100 18.070200 -0.111800 0.752941 0.752941 0.752941
vn 2.855541 -1.161269 5.377429
v -0.083300 18.078400 -0.113100 0.752941 0.752941 0.752941
vn 1.118318 -0.302472 2.586987
v -0.088000 18.025101 -0.117300 0.752941 0.752941 0.752941
vn 1.388576 -0.372901 3.178317
v -0.083100 18.026300 -0.119300 0.752941 0.752941 0.752941
vn 2.812498 -1.792348 5.454366
v -0.088700 18.117001 -0.099900 0.752941 0.752941 0.752941
vn -2.039512 -2.194878 5.936611
v 0.079900 18.107500 -0.106300 0.752941 0.752941 0.752941
vn -0.893974 -2.477453 11.782105
v 0.080800 18.104300 -0.107100 0.752941 0.752941 0.752941
vn 6.101926 -0.565078 1.463960
v 0.076600 18.107901 -0.103200 0.752941 0.752941 0.752941
vn 6.392166 -0.089799 1.007996
v 0.076500 18.107700 -0.102500 0.752941 0.752941 0.752941
vn 0.107826 -2.259429 5.979515
v 0.079600 18.108000 -0.106100 0.752941 0.752941 0.752941
vn 5.559074 -1.062433 2.678931
v 0.076900 18.108101 -0.104000 0.752941 0.752941 0.752941
vn 4.266467 -1.820162 10.555228
v 0.079400 18.108299 -0.106000 0.752941 0.752941 0.752941
vn 1.473212 -1.865375 4.794065
v 0.079100 18.108400 -0.105900 0.752941 0.752941 0.752941
vn 4.451597 -1.650145 3.999897
v 0.077500 18.108299 -0.104900 0.752941 0.752941 0.752941
vn 3.802968 -3.679809 12.141691
v 0.079000 18.108500 -0.105800 0.752941 0.752941 0.752941
vn 3.001358 -1.902922 4.690104
v 0.078400 18.108400 -0.105600 0.752941 0.752941 0.752941
vn 3.267675 -3.067085 11.347733
v 0.078900 18.108500 -0.105800 0.752941 0.752941 0.752941
vn -0.803792 -1.585059 6.082007
v 0.082000 18.080999 -0.112600 0.752941 0.752941 0.752941
vn -2.642596 -0.536257 5.551300
v 0.082400 18.045799 -0.117900 0.752941 0.752941 0.752941
vn 2.173991 -1.650640 9.118768
v 0.082100 18.079800 -0.112900 0.752941 0.752941 0.752941
vn -0.577874 -2.044268 6.302721
v 0.081800 18.113001 -0.104200 0.752941 0.752941 0.752941
vn -2.648689 0.079378 5.574901
v 0.082900 18.011499 -0.119100 0.752941 0.752941 0.752941
vn -2.736326 0.085782 5.761197
v 0.088800 18.011600 -0.116300 0.752941 0.752941 0.752941
vn -2.743433 -0.553720 5.736032
v 0.088300 18.045601 -0.115100 0.752941 0.752941 0.752941
vn -2.601221 -1.086594 5.287229
v 0.088000 18.079300 -0.110100 0.752941 0.752941 0.752941
vn 8.376818 -1.079272 8.823742
v 0.078600 18.102699 -0.106300 0.752941 0.752941 0.752941
vn 6.375597 -1.507628 10.672570
v 0.081000 18.098301 -0.108200 0.752941 0.752941 0.752941
vn 5.070633 -1.115581 5.728175
v 0.079200 18.086901 -0.108900 0.752941 0.752941 0.752941
vn 0.966300 -0.328113 0.985175
v 0.082200 18.083799 -0.112000 0.752941 0.752941 0.752941
vn 3.369008 0.128976 -1.021654
v 0.082600 18.087400 -0.111200 0.752941 0.752941 0.752941
vn -0.784908 1.457815 -5.887355
v 0.081400 18.076099 -0.113800 0.752941 0.752941 0.752941
vn -0.011770 0.021861 -0.088287
v 0.080200 18.069799 -0.115200 0.752941 0.752941 0.752941
vn 2.352949 -0.715340 5.419075
v 0.080300 18.106400 -0.106600 0.752941 0.752941 0.752941
vn -1.201374 -2.197249 5.154842
v 0.079700 18.107901 -0.106100 0.752941 0.752941 0.752941
vn 8.965140 -0.999445 8.591038
v 0.077900 18.097099 -0.106000 0.752941 0.752941 0.752941
vn 2.565022 -0.241653 1.995606
v 0.078000 18.086599 -0.107400 0.752941 0.752941 0.752941
vn -0.089332 -1.512100 5.024346
v 0.079300 18.108400 -0.105900 0.752941 0.752941 0.752941
vn -0.158660 -2.059713 6.101673
v 0.080600 18.105101 -0.106900 0.752941 0.752941 0.752941
vn 2.627904 -0.086638 4.236329
v 0.079100 18.108500 -0.105900 0.752941 0.752941 0.752941
vn 2.945819 -0.078504 4.546951
v 0.080800 18.104500 -0.107100 0.752941 0.752941 0.752941
vn 1.247970 0.172056 -0.335987
v 0.082400 18.095900 -0.109300 0.752941 0.752941 0.752941
vn 4.476871 -0.395496 3.260480
v 0.077200 18.097500 -0.105000 0.752941 0.752941 0.752941
vn 5.090237 -0.167575 3.619471
v 0.077200 18.108200 -0.104500 0.752941 0.752941 0.752941
vn 0.618056 -0.006257 0.436934
v 0.077200 18.097401 -0.105000 0.752941 0.752941 0.752941
vn 3.546248 -0.094204 4.820411
v 0.077900 18.108400 -0.105300 0.752941 0.752941 0.752941
vn 5.690684 -0.008954 2.100187
v 0.076700 18.108000 -0.103600 0.752941 0.752941 0.752941
vn 3.415288 -0.550835 -5.560431
v 0.078600 18.102699 0.106300 0.752941 0.752941 0.752941
vn 6.341885 -1.570470 -10.682070
v 0.081000 18.098400 0.108200 0.752941 0.752941 0.752941
vn 3.303782 -0.538747 -4.336781
v 0.077900 18.097099 0.106000 0.752941 0.752941 0.752941
vn 3.358879 0.194296 1.002198
v 0.082600 18.087500 0.111200 0.752941 0.752941 0.752941
vn 0.480925 -0.153435 -0.483599
v 0.081800 18.078501 0.113200 0.752941 0.752941 0.752941
vn 3.349267 -1.027626 -4.659581
v 0.079200 18.087000 0.108900 0.752941 0.752941 0.752941
vn 1.465523 -1.080876 -5.800075
v 0.080200 18.106701 0.106500 0.752941 0.752941 0.752941
vn 2.091020 -0.640614 -4.999139
v 0.079400 18.108299 0.106000 0.752941 0.752941 0.752941
vn 1.560350 -0.893953 -5.354260
v 0.079800 18.107800 0.106200 0.752941 0.752941 0.752941
vn -0.791908 -2.719401 -11.304904
v 0.080800 18.104300 0.107100 0.752941 0.752941 0.752941
vn 4.518264 0.388366 -4.697142
v 0.079200 18.108400 0.105900 0.752941 0.752941 0.752941
vn 0.744914 -1.044761 -4.349488
v 0.079100 18.108500 0.105800 0.752941 0.752941 0.752941
vn 2.310094 -4.530628 -12.860876
v 0.079000 18.108500 0.105800 0.752941 0.752941 0.752941
vn 1.756112 -3.004517 -8.799353
v 0.078900 18.108500 0.105800 0.752941 0.752941 0.752941
vn 1.258582 0.186789 0.335107
v 0.082400 18.096001 0.109300 0.752941 0.752941 0.752941
vn 0.004275 -0.003169 -0.010532
v 0.080000 18.067101 0.115900 0.752941 0.752941 0.752941
vn 2.254211 -1.671156 -5.553316
v 0.081400 18.076300 0.113700 0.752941 0.752941 0.752941
vn 2.086754 -1.115864 -2.694649
v 0.077900 18.108400 0.105200 0.752941 0.752941 0.752941
vn -1.777548 -2.230680 -6.045265
v 0.080000 18.107201 0.106300 0.752941 0.752941 0.752941
vn -0.422762 -2.249719 -6.021685
v 0.079500 18.108101 0.106000 0.752941 0.752941 0.752941
vn -0.284570 -2.907860 -7.758310
v 0.079300 18.108400 0.105900 0.752941 0.752941 0.752941
vn 0.750836 -1.579350 -4.114479
v 0.079100 18.108400 0.105900 0.752941 0.752941 0.752941
vn 2.860805 -1.859143 -4.583381
v 0.078400 18.108400 0.105600 0.752941 0.752941 0.752941
vn -1.194251 -0.872168 -10.917404
v 0.082000 18.053801 0.117200 0.752941 0.752941 0.752941
vn -1.973188 -0.895996 -5.383495
v 0.080100 18.069401 0.115300 0.752941 0.752941 0.752941
vn -2.745206 -1.229842 -5.806735
v 0.082000 18.080999 0.112600 0.752941 0.752941 0.752941
vn -0.295551 -0.148285 -0.605716
v 0.082200 18.092699 0.109900 0.752941 0.752941 0.752941
vn -1.390966 -0.335917 -3.299619
v 0.082100 18.026300 0.119200 0.752941 0.752941 0.752941
vn -2.218378 -0.895270 -5.429015
v 0.086800 18.070299 0.112600 0.752941 0.752941 0.752941
vn -2.251183 -0.209432 -5.385016
v 0.087100 18.025101 0.117200 0.752941 0.752941 0.752941
vn 1.066475 0.000000 2.469737
v -0.088200 18.025000 -0.117200 0.752941 0.752941 0.752941
vn 0.015963 0.000000 0.036966
v -0.083800 18.026100 -0.119100 0.752941 0.752941 0.752941
vn 1.408443 0.000000 3.261667
v -0.088200 18.025101 -0.117200 0.752941 0.752941 0.752941
vn -1.043482 0.049635 -2.534135
v 0.086800 18.023899 0.117300 0.752941 0.752941 0.752941
vn -0.175276 0.008337 -0.425665
v 0.082300 18.026300 0.119200 0.752941 0.752941 0.752941
# 93 vertices, 0 vertices normals


usemtl material_0
vt 2.144700 0.099700
vt 2.450900 0.049900
vt 2.450900 0.099700
f 4/1/4 5/2/5 6/3/6
vt 2.156800 0.057000
f 4/1/4 7/4/7 5/2/5
vt 2.144900 0.058500
f 4/1/4 8/5/8 7/4/7
vt 1.838400 0.099700
f 9/6/9 8/5/8 4/1/4
vt 1.952600 0.054100
f 9/6/9 2/7/2 8/5/8
vt 0.972300 0.049900
vt 0.842400 0.040000
vt 1.034200 0.029400
f 10/8/10 7/9/7 2/10/2
vt 2.221500 0.115000
vt 2.151700 0.170600
vt 1.948000 0.171900
f 13/11/13 14/12/14 12/13/12
vt 2.629500 0.131000
vt 2.618600 0.178100
f 14/12/14 15/14/15 16/15/16
vt 1.787100 0.115000
f 13/11/13 12/13/12 17/16/17
f 14/12/14 13/11/13 15/14/15
vt 3.399300 0.173300
vt 3.083200 0.172400
vt 3.388900 0.172400
f 30/17/30 31/18/31 32/19/32
vt 3.694700 0.172400
f 33/20/33 30/17/30 32/19/32
vt 3.613100 0.182800
f 33/20/33 19/21/19 30/17/30
vt 2.777400 0.115000
vt 2.777400 0.172400
f 35/22/35 31/18/31 34/23/34
vt 3.083200 0.115000
f 31/18/31 35/22/35 36/24/36
f 36/24/36 32/19/32 31/18/31
vt 3.388900 0.115000
f 32/19/32 36/24/36 37/25/37
f 37/25/37 33/20/33 32/19/32
vt 1.059200 0.044900
vt 1.015000 0.035200
vt 1.103300 0.019400
f 38/26/38 39/27/39 29/28/29
vt 0.919300 0.070400
vt 0.889100 0.037700
vt 0.919300 0.035200
f 40/29/40 41/30/41 42/31/42
vt 0.823600 0.035200
vt 0.770300 0.027800
f 43/32/43 44/33/44 41/30/41
vt 1.099900 0.015800
vt 1.081900 0.015900
vt 1.095600 0.014900
f 24/34/24 45/35/45 46/36/46
vt 1.015000 0.070400
vt 0.919300 0.088000
f 47/37/47 48/38/48 40/29/40
vt 1.101200 0.016500
f 49/39/49 45/35/45 24/34/24
vt 1.071000 0.017900
f 49/39/49 50/40/50 45/35/45
vt 1.102100 0.017200
f 51/41/51 50/40/50 49/39/49
vt 1.102700 0.018000
f 27/42/27 50/40/50 51/41/51
f 29/28/29 50/40/50 27/42/27
vt 1.065400 0.019100
f 29/28/29 52/43/52 50/40/50
vt 1.064100 0.019400
f 29/28/29 19/44/19 52/43/52
vt 0.991700 0.027300
f 53/45/53 41/30/41 19/44/19
f 39/27/39 53/45/53 19/44/19
f 29/28/29 39/27/39 19/44/19
vt 1.021500 0.078700
f 47/37/47 54/46/54 48/38/48
f 38/26/38 54/46/54 47/37/47
f 53/45/53 39/27/39 42/31/42
f 41/30/41 53/45/53 42/31/42
f 39/27/39 38/26/38 47/37/47
f 54/46/54 38/26/38 29/28/29
f 42/31/42 47/37/47 40/29/40
f 47/37/47 42/31/42 39/27/39
vt 0.198200 0.020800
vt 0.100600 0.020600
vt 0.198700 0.011300
f 55/47/55 56/48/56 57/49/57
vt 0.199100 0.001300
f 57/49/57 56/48/56 29/50/29
vt 0.197600 0.030300
vt 0.196800 0.040300
f 56/48/56 58/51/58 21/52/21
f 56/48/56 55/47/55 58/51/58
vt 0.193200 0.044900
vt 0.237100 0.035200
vt 0.237100 0.070400
f 59/53/59 60/54/60 61/55/61
vt 0.332400 0.035200
vt 0.408800 0.036100
vt 0.332400 0.070400
f 62/56/62 63/57/63 64/58/64
vt 0.168200 0.015500
vt 0.152500 0.015800
vt 0.158100 0.014800
f 65/59/65 66/60/66 67/61/67
vt 0.188500 0.019400
f 68/62/68 66/60/66 65/59/65
vt 0.151000 0.016700
f 68/62/68 69/63/69 66/60/66
vt 0.150100 0.017600
f 68/62/68 70/64/70 69/63/69
vt 0.149500 0.018600
f 68/62/68 71/65/71 70/64/70
vt 0.149200 0.019300
f 68/62/68 72/66/72 71/65/71
vt 0.260400 0.027300
f 73/67/73 63/57/63 62/56/62
f 60/54/60 73/67/73 62/56/62
f 60/54/60 72/66/72 68/62/68
f 73/67/73 60/54/60 68/62/68
f 63/57/63 73/67/73 68/62/68
vt 0.503200 0.019800
vt 0.427700 0.035200
f 63/57/63 74/68/74 75/69/75
f 60/54/60 59/53/59 72/66/72
f 60/54/60 64/58/64 61/55/61
f 64/58/64 60/54/60 62/56/62
vt 3.159600 0.053400
vt 3.299500 0.036600
vt 3.405200 0.054200
f 82/70/82 83/71/83 84/72/84
vt 2.914000 0.052700
vt 3.311700 0.099700
vt 2.903000 0.100400
f 86/73/86 87/74/87 88/75/88
vt 3.512600 0.056300
f 87/74/87 84/72/84 85/76/85
f 82/70/82 87/74/87 86/73/86
f 83/71/83 82/70/82 86/73/86
f 87/74/87 82/70/82 84/72/84
vt 0.092900 0.011300
vt 0.052000 0.014900
vt 0.093100 0.010900
f 89/77/89 90/78/90 91/79/91
vt 0.103400 0.022600
vt 0.057800 0.015200
vt 0.103400 0.011300
f 92/80/92 93/81/93 88/82/88
f 4/1/4 5/2/5 6/3/6
f 4/1/4 7/4/7 5/2/5
f 4/1/4 8/5/8 7/4/7
f 9/6/9 8/5/8 4/1/4
f 9/6/9 2/7/2 8/5/8
f 10/8/10 7/9/7 2/10/2
f 13/11/13 14/12/14 12/13/12
f 14/12/14 15/14/15 16/15/16
f 13/11/13 12/13/12 17/16/17
f 14/12/14 13/11/13 15/14/15
f 30/17/30 31/18/31 32/19/32
f 33/20/33 30/17/30 32/19/32
f 33/20/33 19/21/19 30/17/30
f 35/22/35 31/18/31 34/23/34
f 31/18/31 35/22/35 36/24/36
f 36/24/36 32/19/32 31/18/31
f 32/19/32 36/24/36 37/25/37
f 37/25/37 33/20/33 32/19/32
f 38/26/38 39/27/39 29/28/29
f 40/29/40 41/30/41 42/31/42
f 43/32/43 44/33/44 41/30/41
f 24/34/24 45/35/45 46/36/46
f 47/37/47 48/38/48 40/29/40
f 49/39/49 45/35/45 24/34/24
f 49/39/49 50/40/50 45/35/45
f 51/41/51 50/40/50 49/39/49
f 27/42/27 50/40/50 51/41/51
f 29/28/29 50/40/50 27/42/27
f 29/28/29 52/43/52 50/40/50
f 29/28/29 19/44/19 52/43/52
f 53/45/53 41/30/41 19/44/19
f 39/27/39 53/45/53 19/44/19
f 29/28/29 39/27/39 19/44/19
f 47/37/47 54/46/54 48/38/48
f 38/26/38 54/46/54 47/37/47
f 53/45/53 39/27/39 42/31/42
f 41/30/41 53/45/53 42/31/42
f 39/27/39 38/26/38 47/37/47
f 54/46/54 38/26/38 29/28/29
f 42/31/42 47/37/47 40/29/40
f 47/37/47 42/31/42 39/27/39
f 55/47/55 56/48/56 57/49/57
f 57/49/57 56/48/56 29/50/29
f 56/48/56 58/51/58 21/52/21
f 56/48/56 55/47/55 58/51/58
f 59/53/59 60/54/60 61/55/61
f 62/56/62 63/57/63 64/58/64
f 65/59/65 66/60/66 67/61/67
f 68/62/68 66/60/66 65/59/65
f 68/62/68 69/63/69 66/60/66
f 68/62/68 70/64/70 69/63/69
f 68/62/68 71/65/71 70/64/70
f 68/62/68 72/66/72 71/65/71
f 73/67/73 63/57/63 62/56/62
f 60/54/60 73/67/73 62/56/62
f 60/54/60 72/66/72 68/62/68
f 73/67/73 60/54/60 68/62/68
f 63/57/63 73/67/73 68/62/68
f 63/57/63 74/68/74 75/69/75
f 60/54/60 59/53/59 72/66/72
f 60/54/60 64/58/64 61/55/61
f 64/58/64 60/54/60 62/56/62
f 82/70/82 83/71/83 84/72/84
f 86/73/86 87/74/87 88/75/88
f 87/74/87 84/72/84 85/76/85
f 82/70/82 87/74/87 86/73/86
f 83/71/83 82/70/82 86/73/86
f 87/74/87 82/70/82 84/72/84
f 89/77/89 90/78/90 91/79/91
f 92/80/92 93/81/93 88/82/88
# 140 faces, 82 coords texture

# End of File