# 3ds Max Wavefront OBJ Exporter v0.97b - (c)2007 guruware
# 创建的文件:16.05.2017 11:03:54

mtllib test-cylinder.mtl

#
# object Cylinder001
#

v  0.0000 7.8800 0.0000
v  0.0679 7.8800 0.1526
v  0.0000 7.8800 0.1670
v  0.1241 7.8800 0.1117
v  0.1588 7.8800 0.0516
v  0.1661 7.8800 -0.0175
v  0.1446 7.8800 -0.0835
v  0.0982 7.8800 -0.1351
v  0.0347 7.8800 -0.1634
v  -0.0347 7.8800 -0.1634
v  -0.0982 7.8800 -0.1351
v  -0.1446 7.8800 -0.0835
v  -0.1661 7.8800 -0.0175
v  -0.1588 7.8800 0.0516
v  -0.1241 7.8800 0.1117
v  -0.0679 7.8800 0.1526
v  0.0679 8.8800 0.1526
v  -0.0000 8.8800 0.1670
v  0.1241 8.8800 0.1117
v  0.1588 8.8800 0.0516
v  0.1661 8.8800 -0.0175
v  0.1446 8.8800 -0.0835
v  0.0982 8.8800 -0.1351
v  0.0347 8.8800 -0.1634
v  -0.0347 8.8800 -0.1634
v  -0.0982 8.8800 -0.1351
v  -0.1446 8.8800 -0.0835
v  -0.1661 8.8800 -0.0175
v  -0.1588 8.8800 0.0516
v  -0.1241 8.8800 0.1117
v  -0.0679 8.8800 0.1526
v  0.0679 9.8800 0.1526
v  -0.0000 9.8800 0.1670
v  0.1241 9.8800 0.1117
v  0.1588 9.8800 0.0516
v  0.1661 9.8800 -0.0175
v  0.1446 9.8800 -0.0835
v  0.0982 9.8800 -0.1351
v  0.0347 9.8800 -0.1634
v  -0.0347 9.8800 -0.1634
v  -0.0982 9.8800 -0.1351
v  -0.1446 9.8800 -0.0835
v  -0.1661 9.8800 -0.0175
v  -0.1588 9.8800 0.0516
v  -0.1241 9.8800 0.1117
v  -0.0679 9.8800 0.1526
v  0.0679 10.8800 0.1526
v  -0.0000 10.8800 0.1670
v  0.1241 10.8800 0.1117
v  0.1588 10.8800 0.0516
v  0.1661 10.8800 -0.0175
v  0.1446 10.8800 -0.0835
v  0.0982 10.8800 -0.1351
v  0.0347 10.8800 -0.1634
v  -0.0347 10.8800 -0.1634
v  -0.0982 10.8800 -0.1351
v  -0.1446 10.8800 -0.0835
v  -0.1661 10.8800 -0.0175
v  -0.1588 10.8800 0.0516
v  -0.1241 10.8800 0.1117
v  -0.0679 10.8800 0.1526
v  0.0679 11.8800 0.1526
v  -0.0000 11.8800 0.1670
v  0.1241 11.8800 0.1117
v  0.1588 11.8800 0.0516
v  0.1661 11.8800 -0.0175
v  0.1446 11.8800 -0.0835
v  0.0982 11.8800 -0.1351
v  0.0347 11.8800 -0.1634
v  -0.0347 11.8800 -0.1634
v  -0.0982 11.8800 -0.1351
v  -0.1446 11.8800 -0.0835
v  -0.1661 11.8800 -0.0175
v  -0.1588 11.8800 0.0516
v  -0.1241 11.8800 0.1117
v  -0.0679 11.8800 0.1526
v  0.0679 12.8800 0.1526
v  -0.0000 12.8800 0.1670
v  0.1241 12.8800 0.1117
v  0.1588 12.8800 0.0516
v  0.1661 12.8800 -0.0175
v  0.1446 12.8800 -0.0835
v  0.0982 12.8800 -0.1351
v  0.0347 12.8800 -0.1634
v  -0.0347 12.8800 -0.1634
v  -0.0982 12.8800 -0.1351
v  -0.1446 12.8800 -0.0835
v  -0.1661 12.8800 -0.0175
v  -0.1588 12.8800 0.0516
v  -0.1241 12.8800 0.1117
v  -0.0679 12.8800 0.1526
v  0.0679 13.8800 0.1526
v  -0.0000 13.8800 0.1670
v  0.1241 13.8800 0.1117
v  0.1588 13.8800 0.0516
v  0.1661 13.8800 -0.0175
v  0.1446 13.8800 -0.0835
v  0.0982 13.8800 -0.1351
v  0.0347 13.8800 -0.1634
v  -0.0347 13.8800 -0.1634
v  -0.0982 13.8800 -0.1351
v  -0.1446 13.8800 -0.0835
v  -0.1661 13.8800 -0.0175
v  -0.1588 13.8800 0.0516
v  -0.1241 13.8800 0.1117
v  -0.0679 13.8800 0.1526
v  0.0679 14.8800 0.1526
v  -0.0000 14.8800 0.1670
v  0.1241 14.8800 0.1117
v  0.1588 14.8800 0.0516
v  0.1661 14.8800 -0.0175
v  0.1446 14.8800 -0.0835
v  0.0982 14.8800 -0.1351
v  0.0347 14.8800 -0.1634
v  -0.0347 14.8800 -0.1634
v  -0.0982 14.8800 -0.1351
v  -0.1446 14.8800 -0.0835
v  -0.1661 14.8800 -0.0175
v  -0.1588 14.8800 0.0516
v  -0.1241 14.8800 0.1117
v  -0.0679 14.8800 0.1526
v  0.0679 15.8800 0.1526
v  -0.0000 15.8800 0.1670
v  0.1241 15.8800 0.1117
v  0.1588 15.8800 0.0516
v  0.1661 15.8800 -0.0175
v  0.1446 15.8800 -0.0835
v  0.0982 15.8800 -0.1351
v  0.0347 15.8800 -0.1634
v  -0.0347 15.8800 -0.1634
v  -0.0982 15.8800 -0.1351
v  -0.1446 15.8800 -0.0835
v  -0.1661 15.8800 -0.0175
v  -0.1588 15.8800 0.0516
v  -0.1241 15.8800 0.1117
v  -0.0679 15.8800 0.1526
v  0.0679 16.8800 0.1526
v  -0.0000 16.8800 0.1670
v  0.1241 16.8800 0.1117
v  0.1588 16.8800 0.0516
v  0.1661 16.8800 -0.0175
v  0.1446 16.8800 -0.0835
v  0.0982 16.8800 -0.1351
v  0.0347 16.8800 -0.1634
v  -0.0347 16.8800 -0.1634
v  -0.0982 16.8800 -0.1351
v  -0.1446 16.8800 -0.0835
v  -0.1661 16.8800 -0.0175
v  -0.1588 16.8800 0.0516
v  -0.1241 16.8800 0.1117
v  -0.0679 16.8800 0.1526
v  0.0679 17.8800 0.1526
v  -0.0000 17.8800 0.1670
v  0.1241 17.8800 0.1117
v  0.1588 17.8800 0.0516
v  0.1661 17.8800 -0.0175
v  0.1446 17.8800 -0.0835
v  0.0982 17.8800 -0.1351
v  0.0347 17.8800 -0.1634
v  -0.0347 17.8800 -0.1634
v  -0.0982 17.8800 -0.1351
v  -0.1446 17.8800 -0.0835
v  -0.1661 17.8800 -0.0175
v  -0.1588 17.8800 0.0516
v  -0.1241 17.8800 0.1117
v  -0.0679 17.8800 0.1526
v  -0.0000 17.8800 0.0000
# 167 vertices

vn 0.0000 -1.0000 -0.0000
vn 0.0000 0.0000 1.0000
vn 0.4067 0.0000 0.9135
vn 0.7431 0.0000 0.6691
vn 0.9511 0.0000 0.3090
vn 0.9945 0.0000 -0.1045
vn 0.8660 0.0000 -0.5000
vn 0.5878 0.0000 -0.8090
vn 0.2079 0.0000 -0.9781
vn -0.2079 -0.0000 -0.9781
vn -0.5878 -0.0000 -0.8090
vn -0.8660 -0.0000 -0.5000
vn -0.9945 -0.0000 -0.1045
vn -0.9511 -0.0000 0.3090
vn -0.7431 -0.0000 0.6691
vn -0.4067 -0.0000 0.9135
vn -0.0000 1.0000 0.0000
# 17 vertex normals

vt 0.5000 0.0000 0.0000
vt 0.8167 0.0000 1.0000
vt 0.7500 0.0000 1.0000
vt 0.8833 0.0000 1.0000
vt 0.9500 0.0000 1.0000
vt 0.0167 0.0000 1.0000
vt -0.0500 0.0000 1.0000
vt 0.0833 0.0000 1.0000
vt 0.1500 0.0000 1.0000
vt 0.2167 0.0000 1.0000
vt 0.2833 0.0000 1.0000
vt 0.3500 0.0000 1.0000
vt 0.4167 0.0000 1.0000
vt 0.4833 0.0000 1.0000
vt 0.5500 0.0000 1.0000
vt 0.6167 0.0000 1.0000
vt 0.6833 0.0000 1.0000
vt 0.8167 0.1000 1.0000
vt 0.7500 0.1000 1.0000
vt 0.8833 0.1000 1.0000
vt 0.9500 0.1000 1.0000
vt 0.0167 0.1000 1.0000
vt -0.0500 0.1000 1.0000
vt 0.0833 0.1000 1.0000
vt 0.1500 0.1000 1.0000
vt 0.2167 0.1000 1.0000
vt 0.2833 0.1000 1.0000
vt 0.3500 0.1000 1.0000
vt 0.4167 0.1000 1.0000
vt 0.4833 0.1000 1.0000
vt 0.5500 0.1000 1.0000
vt 0.6167 0.1000 1.0000
vt 0.6833 0.1000 1.0000
vt 0.8167 0.2000 1.0000
vt 0.7500 0.2000 1.0000
vt 0.8833 0.2000 1.0000
vt 0.9500 0.2000 1.0000
vt 0.0167 0.2000 1.0000
vt -0.0500 0.2000 1.0000
vt 0.0833 0.2000 1.0000
vt 0.1500 0.2000 1.0000
vt 0.2167 0.2000 1.0000
vt 0.2833 0.2000 1.0000
vt 0.3500 0.2000 1.0000
vt 0.4167 0.2000 1.0000
vt 0.4833 0.2000 1.0000
vt 0.5500 0.2000 1.0000
vt 0.6167 0.2000 1.0000
vt 0.6833 0.2000 1.0000
vt 0.8167 0.3000 1.0000
vt 0.7500 0.3000 1.0000
vt 0.8833 0.3000 1.0000
vt 0.9500 0.3000 1.0000
vt 0.0167 0.3000 1.0000
vt -0.0500 0.3000 1.0000
vt 0.0833 0.3000 1.0000
vt 0.1500 0.3000 1.0000
vt 0.2167 0.3000 1.0000
vt 0.2833 0.3000 1.0000
vt 0.3500 0.3000 1.0000
vt 0.4167 0.3000 1.0000
vt 0.4833 0.3000 1.0000
vt 0.5500 0.3000 1.0000
vt 0.6167 0.3000 1.0000
vt 0.6833 0.3000 1.0000
vt 0.8167 0.4000 1.0000
vt 0.7500 0.4000 1.0000
vt 0.8833 0.4000 1.0000
vt 0.9500 0.4000 1.0000
vt 0.0167 0.4000 1.0000
vt -0.0500 0.4000 1.0000
vt 0.0833 0.4000 1.0000
vt 0.1500 0.4000 1.0000
vt 0.2167 0.4000 1.0000
vt 0.2833 0.4000 1.0000
vt 0.3500 0.4000 1.0000
vt 0.4167 0.4000 1.0000
vt 0.4833 0.4000 1.0000
vt 0.5500 0.4000 1.0000
vt 0.6167 0.4000 1.0000
vt 0.6833 0.4000 1.0000
vt 0.8167 0.5000 1.0000
vt 0.7500 0.5000 1.0000
vt 0.8833 0.5000 1.0000
vt 0.9500 0.5000 1.0000
vt 0.0167 0.5000 1.0000
vt -0.0500 0.5000 1.0000
vt 0.0833 0.5000 1.0000
vt 0.1500 0.5000 1.0000
vt 0.2167 0.5000 1.0000
vt 0.2833 0.5000 1.0000
vt 0.3500 0.5000 1.0000
vt 0.4167 0.5000 1.0000
vt 0.4833 0.5000 1.0000
vt 0.5500 0.5000 1.0000
vt 0.6167 0.5000 1.0000
vt 0.6833 0.5000 1.0000
vt 0.8167 0.6000 1.0000
vt 0.7500 0.6000 1.0000
vt 0.8833 0.6000 1.0000
vt 0.9500 0.6000 1.0000
vt 0.0167 0.6000 1.0000
vt -0.0500 0.6000 1.0000
vt 0.0833 0.6000 1.0000
vt 0.1500 0.6000 1.0000
vt 0.2167 0.6000 1.0000
vt 0.2833 0.6000 1.0000
vt 0.3500 0.6000 1.0000
vt 0.4167 0.6000 1.0000
vt 0.4833 0.6000 1.0000
vt 0.5500 0.6000 1.0000
vt 0.6167 0.6000 1.0000
vt 0.6833 0.6000 1.0000
vt 0.8167 0.7000 1.0000
vt 0.7500 0.7000 1.0000
vt 0.8833 0.7000 1.0000
vt 0.9500 0.7000 1.0000
vt 0.0167 0.7000 1.0000
vt -0.0500 0.7000 1.0000
vt 0.0833 0.7000 1.0000
vt 0.1500 0.7000 1.0000
vt 0.2167 0.7000 1.0000
vt 0.2833 0.7000 1.0000
vt 0.3500 0.7000 1.0000
vt 0.4167 0.7000 1.0000
vt 0.4833 0.7000 1.0000
vt 0.5500 0.7000 1.0000
vt 0.6167 0.7000 1.0000
vt 0.6833 0.7000 1.0000
vt 0.8167 0.8000 1.0000
vt 0.7500 0.8000 1.0000
vt 0.8833 0.8000 1.0000
vt 0.9500 0.8000 1.0000
vt 0.0167 0.8000 1.0000
vt -0.0500 0.8000 1.0000
vt 0.0833 0.8000 1.0000
vt 0.1500 0.8000 1.0000
vt 0.2167 0.8000 1.0000
vt 0.2833 0.8000 1.0000
vt 0.3500 0.8000 1.0000
vt 0.4167 0.8000 1.0000
vt 0.4833 0.8000 1.0000
vt 0.5500 0.8000 1.0000
vt 0.6167 0.8000 1.0000
vt 0.6833 0.8000 1.0000
vt 0.8167 0.9000 1.0000
vt 0.7500 0.9000 1.0000
vt 0.8833 0.9000 1.0000
vt 0.9500 0.9000 1.0000
vt 0.0167 0.9000 1.0000
vt -0.0500 0.9000 1.0000
vt 0.0833 0.9000 1.0000
vt 0.1500 0.9000 1.0000
vt 0.2167 0.9000 1.0000
vt 0.2833 0.9000 1.0000
vt 0.3500 0.9000 1.0000
vt 0.4167 0.9000 1.0000
vt 0.4833 0.9000 1.0000
vt 0.5500 0.9000 1.0000
vt 0.6167 0.9000 1.0000
vt 0.6833 0.9000 1.0000
vt 0.8167 1.0000 1.0000
vt 0.7500 1.0000 1.0000
vt 0.8833 1.0000 1.0000
vt 0.9500 1.0000 1.0000
vt 0.0167 1.0000 1.0000
vt -0.0500 1.0000 1.0000
vt 0.0833 1.0000 1.0000
vt 0.1500 1.0000 1.0000
vt 0.2167 1.0000 1.0000
vt 0.2833 1.0000 1.0000
vt 0.3500 1.0000 1.0000
vt 0.4167 1.0000 1.0000
vt 0.4833 1.0000 1.0000
vt 0.5500 1.0000 1.0000
vt 0.6167 1.0000 1.0000
vt 0.6833 1.0000 1.0000
vt 0.5000 1.0000 0.0000
# 178 texture coords

g Cylinder001
usemtl wire_008061138
s 1
f 1/1/1 2/2/1 3/3/1 
f 1/1/1 4/4/1 2/2/1 
f 1/1/1 5/5/1 4/4/1 
f 1/1/1 6/6/1 5/7/1 
f 1/1/1 7/8/1 6/6/1 
f 1/1/1 8/9/1 7/8/1 
f 1/1/1 9/10/1 8/9/1 
f 1/1/1 10/11/1 9/10/1 
f 1/1/1 11/12/1 10/11/1 
f 1/1/1 12/13/1 11/12/1 
f 1/1/1 13/14/1 12/13/1 
f 1/1/1 14/15/1 13/14/1 
f 1/1/1 15/16/1 14/15/1 
f 1/1/1 16/17/1 15/16/1 
f 1/1/1 3/3/1 16/17/1 
s 8
f 3/3/2 17/18/3 18/19/2 
f 3/3/2 2/2/3 17/18/3 
f 2/2/3 19/20/4 17/18/3 
f 2/2/3 4/4/4 19/20/4 
f 4/4/4 20/21/5 19/20/4 
f 4/4/4 5/5/5 20/21/5 
f 5/7/5 21/22/6 20/23/5 
f 5/7/5 6/6/6 21/22/6 
f 6/6/6 22/24/7 21/22/6 
f 6/6/6 7/8/7 22/24/7 
f 7/8/7 23/25/8 22/24/7 
f 7/8/7 8/9/8 23/25/8 
f 8/9/8 24/26/9 23/25/8 
f 8/9/8 9/10/9 24/26/9 
f 9/10/9 25/27/10 24/26/9 
f 9/10/9 10/11/10 25/27/10 
f 10/11/10 26/28/11 25/27/10 
f 10/11/10 11/12/11 26/28/11 
f 11/12/11 27/29/12 26/28/11 
f 11/12/11 12/13/12 27/29/12 
f 12/13/12 28/30/13 27/29/12 
f 12/13/12 13/14/13 28/30/13 
f 13/14/13 29/31/14 28/30/13 
f 13/14/13 14/15/14 29/31/14 
f 14/15/14 30/32/15 29/31/14 
f 14/15/14 15/16/15 30/32/15 
f 15/16/15 31/33/16 30/32/15 
f 15/16/15 16/17/16 31/33/16 
f 16/17/16 18/19/2 31/33/16 
f 16/17/16 3/3/2 18/19/2 
f 18/19/2 32/34/3 33/35/2 
f 18/19/2 17/18/3 32/34/3 
f 17/18/3 34/36/4 32/34/3 
f 17/18/3 19/20/4 34/36/4 
f 19/20/4 35/37/5 34/36/4 
f 19/20/4 20/21/5 35/37/5 
f 20/23/5 36/38/6 35/39/5 
f 20/23/5 21/22/6 36/38/6 
f 21/22/6 37/40/7 36/38/6 
f 21/22/6 22/24/7 37/40/7 
f 22/24/7 38/41/8 37/40/7 
f 22/24/7 23/25/8 38/41/8 
f 23/25/8 39/42/9 38/41/8 
f 23/25/8 24/26/9 39/42/9 
f 24/26/9 40/43/10 39/42/9 
f 24/26/9 25/27/10 40/43/10 
f 25/27/10 41/44/11 40/43/10 
f 25/27/10 26/28/11 41/44/11 
f 26/28/11 42/45/12 41/44/11 
f 26/28/11 27/29/12 42/45/12 
f 27/29/12 43/46/13 42/45/12 
f 27/29/12 28/30/13 43/46/13 
f 28/30/13 44/47/14 43/46/13 
f 28/30/13 29/31/14 44/47/14 
f 29/31/14 45/48/15 44/47/14 
f 29/31/14 30/32/15 45/48/15 
f 30/32/15 46/49/16 45/48/15 
f 30/32/15 31/33/16 46/49/16 
f 31/33/16 33/35/2 46/49/16 
f 31/33/16 18/19/2 33/35/2 
f 33/35/2 47/50/3 48/51/2 
f 33/35/2 32/34/3 47/50/3 
f 32/34/3 49/52/4 47/50/3 
f 32/34/3 34/36/4 49/52/4 
f 34/36/4 50/53/5 49/52/4 
f 34/36/4 35/37/5 50/53/5 
f 35/39/5 51/54/6 50/55/5 
f 35/39/5 36/38/6 51/54/6 
f 36/38/6 52/56/7 51/54/6 
f 36/38/6 37/40/7 52/56/7 
f 37/40/7 53/57/8 52/56/7 
f 37/40/7 38/41/8 53/57/8 
f 38/41/8 54/58/9 53/57/8 
f 38/41/8 39/42/9 54/58/9 
f 39/42/9 55/59/10 54/58/9 
f 39/42/9 40/43/10 55/59/10 
f 40/43/10 56/60/11 55/59/10 
f 40/43/10 41/44/11 56/60/11 
f 41/44/11 57/61/12 56/60/11 
f 41/44/11 42/45/12 57/61/12 
f 42/45/12 58/62/13 57/61/12 
f 42/45/12 43/46/13 58/62/13 
f 43/46/13 59/63/14 58/62/13 
f 43/46/13 44/47/14 59/63/14 
f 44/47/14 60/64/15 59/63/14 
f 44/47/14 45/48/15 60/64/15 
f 45/48/15 61/65/16 60/64/15 
f 45/48/15 46/49/16 61/65/16 
f 46/49/16 48/51/2 61/65/16 
f 46/49/16 33/35/2 48/51/2 
f 48/51/2 62/66/3 63/67/2 
f 48/51/2 47/50/3 62/66/3 
f 47/50/3 64/68/4 62/66/3 
f 47/50/3 49/52/4 64/68/4 
f 49/52/4 65/69/5 64/68/4 
f 49/52/4 50/53/5 65/69/5 
f 50/55/5 66/70/6 65/71/5 
f 50/55/5 51/54/6 66/70/6 
f 51/54/6 67/72/7 66/70/6 
f 51/54/6 52/56/7 67/72/7 
f 52/56/7 68/73/8 67/72/7 
f 52/56/7 53/57/8 68/73/8 
f 53/57/8 69/74/9 68/73/8 
f 53/57/8 54/58/9 69/74/9 
f 54/58/9 70/75/10 69/74/9 
f 54/58/9 55/59/10 70/75/10 
f 55/59/10 71/76/11 70/75/10 
f 55/59/10 56/60/11 71/76/11 
f 56/60/11 72/77/12 71/76/11 
f 56/60/11 57/61/12 72/77/12 
f 57/61/12 73/78/13 72/77/12 
f 57/61/12 58/62/13 73/78/13 
f 58/62/13 74/79/14 73/78/13 
f 58/62/13 59/63/14 74/79/14 
f 59/63/14 75/80/15 74/79/14 
f 59/63/14 60/64/15 75/80/15 
f 60/64/15 76/81/16 75/80/15 
f 60/64/15 61/65/16 76/81/16 
f 61/65/16 63/67/2 76/81/16 
f 61/65/16 48/51/2 63/67/2 
f 63/67/2 77/82/3 78/83/2 
f 63/67/2 62/66/3 77/82/3 
f 62/66/3 79/84/4 77/82/3 
f 62/66/3 64/68/4 79/84/4 
f 64/68/4 80/85/5 79/84/4 
f 64/68/4 65/69/5 80/85/5 
f 65/71/5 81/86/6 80/87/5 
f 65/71/5 66/70/6 81/86/6 
f 66/70/6 82/88/7 81/86/6 
f 66/70/6 67/72/7 82/88/7 
f 67/72/7 83/89/8 82/88/7 
f 67/72/7 68/73/8 83/89/8 
f 68/73/8 84/90/9 83/89/8 
f 68/73/8 69/74/9 84/90/9 
f 69/74/9 85/91/10 84/90/9 
f 69/74/9 70/75/10 85/91/10 
f 70/75/10 86/92/11 85/91/10 
f 70/75/10 71/76/11 86/92/11 
f 71/76/11 87/93/12 86/92/11 
f 71/76/11 72/77/12 87/93/12 
f 72/77/12 88/94/13 87/93/12 
f 72/77/12 73/78/13 88/94/13 
f 73/78/13 89/95/14 88/94/13 
f 73/78/13 74/79/14 89/95/14 
f 74/79/14 90/96/15 89/95/14 
f 74/79/14 75/80/15 90/96/15 
f 75/80/15 91/97/16 90/96/15 
f 75/80/15 76/81/16 91/97/16 
f 76/81/16 78/83/2 91/97/16 
f 76/81/16 63/67/2 78/83/2 
f 78/83/2 92/98/3 93/99/2 
f 78/83/2 77/82/3 92/98/3 
f 77/82/3 94/100/4 92/98/3 
f 77/82/3 79/84/4 94/100/4 
f 79/84/4 95/101/5 94/100/4 
f 79/84/4 80/85/5 95/101/5 
f 80/87/5 96/102/6 95/103/5 
f 80/87/5 81/86/6 96/102/6 
f 81/86/6 97/104/7 96/102/6 
f 81/86/6 82/88/7 97/104/7 
f 82/88/7 98/105/8 97/104/7 
f 82/88/7 83/89/8 98/105/8 
f 83/89/8 99/106/9 98/105/8 
f 83/89/8 84/90/9 99/106/9 
f 84/90/9 100/107/10 99/106/9 
f 84/90/9 85/91/10 100/107/10 
f 85/91/10 101/108/11 100/107/10 
f 85/91/10 86/92/11 101/108/11 
f 86/92/11 102/109/12 101/108/11 
f 86/92/11 87/93/12 102/109/12 
f 87/93/12 103/110/13 102/109/12 
f 87/93/12 88/94/13 103/110/13 
f 88/94/13 104/111/14 103/110/13 
f 88/94/13 89/95/14 104/111/14 
f 89/95/14 105/112/15 104/111/14 
f 89/95/14 90/96/15 105/112/15 
f 90/96/15 106/113/16 105/112/15 
f 90/96/15 91/97/16 106/113/16 
f 91/97/16 93/99/2 106/113/16 
f 91/97/16 78/83/2 93/99/2 
f 93/99/2 107/114/3 108/115/2 
f 93/99/2 92/98/3 107/114/3 
f 92/98/3 109/116/4 107/114/3 
f 92/98/3 94/100/4 109/116/4 
f 94/100/4 110/117/5 109/116/4 
f 94/100/4 95/101/5 110/117/5 
f 95/103/5 111/118/6 110/119/5 
f 95/103/5 96/102/6 111/118/6 
f 96/102/6 112/120/7 111/118/6 
f 96/102/6 97/104/7 112/120/7 
f 97/104/7 113/121/8 112/120/7 
f 97/104/7 98/105/8 113/121/8 
f 98/105/8 114/122/9 113/121/8 
f 98/105/8 99/106/9 114/122/9 
f 99/106/9 115/123/10 114/122/9 
f 99/106/9 100/107/10 115/123/10 
f 100/107/10 116/124/11 115/123/10 
f 100/107/10 101/108/11 116/124/11 
f 101/108/11 117/125/12 116/124/11 
f 101/108/11 102/109/12 117/125/12 
f 102/109/12 118/126/13 117/125/12 
f 102/109/12 103/110/13 118/126/13 
f 103/110/13 119/127/14 118/126/13 
f 103/110/13 104/111/14 119/127/14 
f 104/111/14 120/128/15 119/127/14 
f 104/111/14 105/112/15 120/128/15 
f 105/112/15 121/129/16 120/128/15 
f 105/112/15 106/113/16 121/129/16 
f 106/113/16 108/115/2 121/129/16 
f 106/113/16 93/99/2 108/115/2 
f 108/115/2 122/130/3 123/131/2 
f 108/115/2 107/114/3 122/130/3 
f 107/114/3 124/132/4 122/130/3 
f 107/114/3 109/116/4 124/132/4 
f 109/116/4 125/133/5 124/132/4 
f 109/116/4 110/117/5 125/133/5 
f 110/119/5 126/134/6 125/135/5 
f 110/119/5 111/118/6 126/134/6 
f 111/118/6 127/136/7 126/134/6 
f 111/118/6 112/120/7 127/136/7 
f 112/120/7 128/137/8 127/136/7 
f 112/120/7 113/121/8 128/137/8 
f 113/121/8 129/138/9 128/137/8 
f 113/121/8 114/122/9 129/138/9 
f 114/122/9 130/139/10 129/138/9 
f 114/122/9 115/123/10 130/139/10 
f 115/123/10 131/140/11 130/139/10 
f 115/123/10 116/124/11 131/140/11 
f 116/124/11 132/141/12 131/140/11 
f 116/124/11 117/125/12 132/141/12 
f 117/125/12 133/142/13 132/141/12 
f 117/125/12 118/126/13 133/142/13 
f 118/126/13 134/143/14 133/142/13 
f 118/126/13 119/127/14 134/143/14 
f 119/127/14 135/144/15 134/143/14 
f 119/127/14 120/128/15 135/144/15 
f 120/128/15 136/145/16 135/144/15 
f 120/128/15 121/129/16 136/145/16 
f 121/129/16 123/131/2 136/145/16 
f 121/129/16 108/115/2 123/131/2 
f 123/131/2 137/146/3 138/147/2 
f 123/131/2 122/130/3 137/146/3 
f 122/130/3 139/148/4 137/146/3 
f 122/130/3 124/132/4 139/148/4 
f 124/132/4 140/149/5 139/148/4 
f 124/132/4 125/133/5 140/149/5 
f 125/135/5 141/150/6 140/151/5 
f 125/135/5 126/134/6 141/150/6 
f 126/134/6 142/152/7 141/150/6 
f 126/134/6 127/136/7 142/152/7 
f 127/136/7 143/153/8 142/152/7 
f 127/136/7 128/137/8 143/153/8 
f 128/137/8 144/154/9 143/153/8 
f 128/137/8 129/138/9 144/154/9 
f 129/138/9 145/155/10 144/154/9 
f 129/138/9 130/139/10 145/155/10 
f 130/139/10 146/156/11 145/155/10 
f 130/139/10 131/140/11 146/156/11 
f 131/140/11 147/157/12 146/156/11 
f 131/140/11 132/141/12 147/157/12 
f 132/141/12 148/158/13 147/157/12 
f 132/141/12 133/142/13 148/158/13 
f 133/142/13 149/159/14 148/158/13 
f 133/142/13 134/143/14 149/159/14 
f 134/143/14 150/160/15 149/159/14 
f 134/143/14 135/144/15 150/160/15 
f 135/144/15 151/161/16 150/160/15 
f 135/144/15 136/145/16 151/161/16 
f 136/145/16 138/147/2 151/161/16 
f 136/145/16 123/131/2 138/147/2 
f 138/147/2 152/162/3 153/163/2 
f 138/147/2 137/146/3 152/162/3 
f 137/146/3 154/164/4 152/162/3 
f 137/146/3 139/148/4 154/164/4 
f 139/148/4 155/165/5 154/164/4 
f 139/148/4 140/149/5 155/165/5 
f 140/151/5 156/166/6 155/167/5 
f 140/151/5 141/150/6 156/166/6 
f 141/150/6 157/168/7 156/166/6 
f 141/150/6 142/152/7 157/168/7 
f 142/152/7 158/169/8 157/168/7 
f 142/152/7 143/153/8 158/169/8 
f 143/153/8 159/170/9 158/169/8 
f 143/153/8 144/154/9 159/170/9 
f 144/154/9 160/171/10 159/170/9 
f 144/154/9 145/155/10 160/171/10 
f 145/155/10 161/172/11 160/171/10 
f 145/155/10 146/156/11 161/172/11 
f 146/156/11 162/173/12 161/172/11 
f 146/156/11 147/157/12 162/173/12 
f 147/157/12 163/174/13 162/173/12 
f 147/157/12 148/158/13 163/174/13 
f 148/158/13 164/175/14 163/174/13 
f 148/158/13 149/159/14 164/175/14 
f 149/159/14 165/176/15 164/175/14 
f 149/159/14 150/160/15 165/176/15 
f 150/160/15 166/177/16 165/176/15 
f 150/160/15 151/161/16 166/177/16 
f 151/161/16 153/163/2 166/177/16 
f 151/161/16 138/147/2 153/163/2 
s 1
f 167/178/17 153/163/17 152/162/17 
f 167/178/17 152/162/17 154/164/17 
f 167/178/17 154/164/17 155/165/17 
f 167/178/17 155/167/17 156/166/17 
f 167/178/17 156/166/17 157/168/17 
f 167/178/17 157/168/17 158/169/17 
f 167/178/17 158/169/17 159/170/17 
f 167/178/17 159/170/17 160/171/17 
f 167/178/17 160/171/17 161/172/17 
f 167/178/17 161/172/17 162/173/17 
f 167/178/17 162/173/17 163/174/17 
f 167/178/17 163/174/17 164/175/17 
f 167/178/17 164/175/17 165/176/17 
f 167/178/17 165/176/17 166/177/17 
f 167/178/17 166/177/17 153/163/17 
# 330 faces

